**ABCDEFGHIJKLMNOPQRSTUVWXYZabcdefghijklmnopqrstuvwxyz**************************
**PARASOLID !"#$%&'()*+,-./:;<=>?@[\]^_`{|}~0123456789**************************
**PART1;
MC=AMD64;
MC_MODEL=Intel64 Family 6 Model 69 Stepping 1, GenuineIntel;
MC_ID=unknown;
OS=Windows_NT;
OS_RELEASE=unknown;
FRU=Parasolid Version 30.0, build 226,  7-26-2017;
APPL=SOLIDWORKS 2018-2017284;
SITE=;
USER=unknown;
FORMAT=text;
GUISE=transmit;
KEY=Link_Connector;
FILE=Link_Connector.x_t;
DATE=Mon Dec 18 20:11:54 2017;
**PART2;
SCH=SCH_3000226_30000;
USFLD_SIZE=0;
**PART3;
**END_OF_HEADER*****************************************************************
T51 : TRANSMIT FILE created by modeller version 300022623 SCH_3000226_30000_1300
6205 0 12 33 CCCCCCI4 mesh1006 0 I8 polyline1008 0 CCCCCCCDI5 owner1040 0 CCCCCC
I13 boundary_mesh1006 0 I17 boundary_polyline1008 0 CCCA16 index_map_offset0 0 1
 dA9 index_map82 0 A17 node_id_index_map82 0 A20 schema_embedding_map82 0 A5 chi
ld12 0 A14 lowest_node_id0 0 1 dZ1 246 0 2 0 0 0 0 0 0 1e3 1e-8 0 3 0 1 0 1 1 4
 5 6 0 0 0 7 8 0 0 0 0 0 0 0 70 11 CI9 list_type0 0 1 uI10 notransmit0 0 1 lCCCD
CCDI12 finger_index0 0 1 dI12 finger_block1012 0 CZ2 0 4 T1 0 0 2 20 1 9 9 13 25
5 4 29 0 1 0 10 0 0 11 0 51 255 5 28 0 10 12 0 0 -0 0 .004 0 0 -1 .0015 -1 0 0 3
1 255 6 23 0 13 14 0 0 +0 0 0 0 0 1 1 0 0 .0015 19 8 CCCCCCCA5 owner12 0 Z7 7 0
 1 11 0 15 V0 16 255 8 95 0 ?16 0 17 18 0 0 1 17 255 16 0 19 16 16 0 20 8 0 0 +1
6 17 4 0 ?21 8 13 14 0 0 1 31 18 123 0 8 22 23 0 +0 0 .006 0 0 1 1 0 0 .00195 31
 22 124 0 24 25 18 0 +0 0 .026 0 0 1 1 0 0 .00195 31 23 82 0 26 18 27 0 +0 0 .00
6 0 0 1 1 0 0 .0025 16 26 57 0 ?28 13 29 23 0 0 1 31 27 81 0 29 23 14 0 +0 0 .00
4 0 0 1 1 0 0 .0025 16 29 54 0 ?30 26 24 27 0 0 1 31 14 5 0 17 27 6 0 +0 0 .004
 0 0 1 1 0 0 .0015 17 30 0 31 30 30 0 32 29 0 0 +16 24 104 0 ?33 29 34 22 0 0 1
 17 33 0 35 33 33 0 36 24 0 0 +16 34 150 0 ?37 24 38 39 0 0 1 17 37 0 40 37 37 0
 41 34 0 0 +16 38 147 0 ?42 34 0 25 0 0 1 31 39 175 0 34 0 25 0 +0 0 .028 0 0 1
 1 0 0 .0025 31 25 174 0 38 39 22 0 +0 0 .026 0 0 1 1 0 0 .0025 17 42 0 43 42 42
 0 44 38 0 0 +15 255 43 161 0 42 45 0 17 44 0 46 44 44 0 42 38 0 0 -15 46 168 0
 44 47 0 14 255 47 165 48 ?0 49 35 4 50 -0 0 0 49 15 81 255 1 48 238 51 47 52 0
 0 53 54 14 49 162 53 ?47 45 40 4 55 +0 0 47 45 15 15 35 167 0 33 47 46 50 255 5
0 172 0 47 55 56 0 +0 0 .026 0 0 1 1 0 0 13 15 8 0 0 0 0 0 0 7 10 14 10 25 57 ?5
8 0 59 4 5 -0 0 58 0 15 81 1 57 240 51 10 60 0 53 61 62 14 58 16 61 ?63 10 64 4
 12 -0 0 63 10 15 15 59 24 0 65 10 66 17 65 0 59 65 65 0 21 17 0 0 -15 66 26 0 6
7 10 0 17 67 0 66 67 67 0 68 13 0 0 +17 68 0 64 68 68 0 67 13 0 0 -16 13 18 0 ?6
7 17 26 6 0 0 1 15 64 17 0 68 58 0 17 21 0 69 21 21 0 65 17 0 0 +15 69 74 0 21 7
0 71 14 70 72 72 ?73 74 69 4 75 -0 0 73 74 15 15 71 75 0 32 70 0 17 32 0 71 32 3
2 0 30 29 0 0 -81 1 72 242 51 70 76 0 61 77 78 14 73 107 77 ?45 70 79 4 80 -0 0
 45 70 15 14 74 69 81 ?70 63 82 4 83 +0 0 70 63 15 50 75 79 0 70 83 84 0 +0 0 .0
04 0 0 1 1 0 0 50 83 80 0 74 80 75 0 +0 0 .006 0 0 1 1 0 0 51 84 78 0 63 75 12 0
 -0 0 .006 0 0 -1 .0025 -1 0 0 14 63 64 85 ?74 58 86 4 84 -0 0 74 58 15 50 12 22
 0 58 84 5 0 +0 0 0 0 0 1 1 0 0 81 1 85 245 51 63 87 0 81 88 89 15 86 67 0 90 63
 31 17 90 0 86 90 90 0 28 26 0 0 -15 31 68 0 30 63 0 17 28 0 91 28 28 0 90 26 0
 0 +15 91 71 0 28 74 0 80 255 1 51 92 93 9000 1 1 1 1 1 1 1 1 0 FFFFTFTFFFFFFF1
 81 1 87 211 94 63 0 85 95 96 97 81 1 81 244 51 74 96 0 77 85 98 81 1 88 246 51
 45 99 0 85 0 100 82 255 1 89 79626346 14 45 157 88 ?49 73 101 4 56 -0 0 49 73 1
5 81 1 99 215 94 45 0 88 102 103 104 82 1 100 229769341 80 1 94 0 105 8001 0 0 0
 0 3 5 0 0 0 FFFFTFTFFFFFFF2 81 1 102 214 94 73 0 77 76 99 106 81 1 103 216 94 4
9 0 53 99 52 107 83 255 3 104 .898039215686275 .898039215686275 .898039215686275
 81 1 53 239 51 49 103 0 48 57 108 81 1 52 217 94 47 0 48 103 0 109 83 3 107 .89
8039215686275 .898039215686275 .898039215686275 83 3 109 .898039215686275 .89803
9215686275 .898039215686275 82 1 108 227803261 81 1 77 243 51 73 102 0 72 81 110
 81 1 76 213 94 70 0 72 96 102 111 83 3 106 .898039215686275 .898039215686275 .8
98039215686275 81 1 96 212 94 74 0 81 87 76 112 83 3 111 .898039215686275 .89803
9215686275 .898039215686275 83 3 112 .898039215686275 .898039215686275 .89803921
5686275 82 1 110 -789774214 79 255 15 105 SDL/TYSA_COLOUR15 101 160 0 41 45 43 5
1 56 171 0 45 50 80 0 -0 0 .028 0 0 -1 .0025 -1 0 0 51 80 120 0 73 56 83 0 -0 0
 .026 0 0 -1 .00195 -1 0 0 17 41 0 101 41 41 0 37 34 0 0 -82 1 98 216858746 81 1
 95 210 94 58 0 61 60 87 113 83 3 97 .898039215686275 .898039215686275 .89803921
5686275 81 1 61 241 51 58 95 0 57 72 114 81 1 60 209 94 10 0 57 0 95 115 83 3 11
3 .898039215686275 .898039215686275 .898039215686275 83 3 115 .898039215686275 .
898039215686275 .898039215686275 82 1 114 -712179609 79 14 93 SWEntUnchanged15 8
2 97 0 20 74 91 17 20 0 82 20 20 0 16 8 0 0 -15 79 110 0 36 73 19 17 36 0 79 36
 36 0 33 24 0 0 -15 19 111 0 16 73 0 82 1 78 79364202 82 1 62 -711917465 50 55 1
73 0 49 0 50 0 +0 0 .028 0 0 1 1 0 0 15 40 164 0 37 49 0 82 1 54 229507197 19 11
 30 0 1 0 7 4 S0 74 4 CI16 index_map_offset0 0 1 dCCZ20 9 2 0 0 88 52 0 0 0 0 0
 0 0 0 0 0 0 0 0 0 0 0 0 0 1 0 
