**ABCDEFGHIJKLMNOPQRSTUVWXYZabcdefghijklmnopqrstuvwxyz**************************
**PARASOLID !"#$%&'()*+,-./:;<=>?@[\]^_`{|}~0123456789**************************
**PART1;
MC=AMD64;
MC_MODEL=Intel64 Family 6 Model 69 Stepping 1, GenuineIntel;
MC_ID=unknown;
OS=Windows_NT;
OS_RELEASE=unknown;
FRU=Parasolid Version 30.0, build 226,  7-26-2017;
APPL=SOLIDWORKS 2018-2017284;
SITE=;
USER=unknown;
FORMAT=text;
GUISE=transmit;
KEY=Shaft;
FILE=Shaft.x_t;
DATE=Mon Dec 18 20:11:25 2017;
**PART2;
SCH=SCH_3000226_30000;
USFLD_SIZE=0;
**PART3;
**END_OF_HEADER*****************************************************************
T51 : TRANSMIT FILE created by modeller version 300022623 SCH_3000226_30000_1300
6205 0 12 33 CCCCCCI4 mesh1006 0 I8 polyline1008 0 CCCCCCCDI5 owner1040 0 CCCCCC
I13 boundary_mesh1006 0 I17 boundary_polyline1008 0 CCCA16 index_map_offset0 0 1
 dA9 index_map82 0 A17 node_id_index_map82 0 A20 schema_embedding_map82 0 A5 chi
ld12 0 A14 lowest_node_id0 0 1 dZ1 97 0 2 0 0 0 0 0 0 1e3 1e-8 0 3 0 1 0 1 1 4 5
 6 0 0 0 7 8 0 0 0 0 0 0 0 70 11 CI9 list_type0 0 1 uI10 notransmit0 0 1 lCCCDCC
DI12 finger_index0 0 1 dI12 finger_block1012 0 CZ2 0 4 T1 0 0 2 20 1 9 9 13 255
 4 29 0 1 0 10 0 0 11 0 51 255 5 28 0 10 12 0 0 -0 0 .022 0 0 -1 .0015 -1 0 0 31
 255 6 23 0 13 14 0 0 +0 0 0 0 0 1 1 0 0 .0015 19 8 CCCCCCCA5 owner12 0 Z7 7 0 1
 11 0 15 V0 16 255 8 4 0 ?16 0 13 14 0 0 1 17 255 16 0 17 16 16 0 18 8 0 0 +16 1
3 18 0 ?19 8 0 6 0 0 1 31 14 5 0 8 0 6 0 +0 0 .022 0 0 1 1 0 0 .0015 17 19 0 20
 19 19 0 21 13 0 0 +15 255 20 26 0 19 10 0 17 21 0 22 21 21 0 19 13 0 0 -15 22 1
7 0 21 23 0 14 255 23 16 24 ?0 25 22 4 12 -0 0 0 25 15 81 255 1 24 95 26 23 27 0
 0 28 29 14 25 1 28 ?23 10 17 4 30 +0 0 23 10 15 50 255 12 22 0 23 30 5 0 +0 0 0
 0 0 1 1 0 0 13 15 8 0 0 0 0 0 0 7 10 14 10 25 31 ?25 0 32 4 5 -0 0 25 0 15 81 1
 31 97 26 10 33 0 28 0 34 15 32 24 0 18 10 20 17 18 0 32 18 18 0 16 8 0 0 -80 25
5 1 26 35 36 9000 1 1 1 1 1 1 1 1 0 FFFFTFTFFFFFFF1 81 1 33 84 37 10 0 31 0 38 3
9 81 1 28 96 26 25 38 0 24 31 40 82 255 1 34 -1041104789 81 1 38 85 37 25 0 28 3
3 27 41 82 1 40 -1043070869 80 1 37 0 42 8001 0 0 0 0 3 5 0 0 0 FFFFTFTFFFFFFF2
 81 1 27 86 37 23 0 24 38 0 43 83 255 3 41 .792156862745098 .819607843137255 .93
3333333333333 83 3 43 .792156862745098 .819607843137255 .933333333333333 79 255
 15 42 SDL/TYSA_COLOUR83 3 39 .792156862745098 .819607843137255 .933333333333333
 79 14 36 SWEntUnchanged50 30 2 0 25 0 12 0 +0 0 .022 0 0 1 1 0 0 15 17 3 0 16 2
5 0 82 1 29 -1041366933 19 11 30 0 1 0 7 4 S0 74 4 CI16 index_map_offset0 0 1 dC
CZ20 9 2 0 0 31 27 0 0 0 0 0 0 0 0 0 0 0 0 0 0 0 0 0 0 1 0 
